<svg id="Layer_1" data-name="Layer 1" xmlns="http://www.w3.org/2000/svg" viewBox="0 0 267.73 56.16"><defs><style>.cls-1{fill:none;stroke:#86c232;stroke-miterlimit:10;stroke-width:1.5px;}</style></defs><title>Untitled-1</title><path class="cls-1" d="M69.83,105.07l2.52-.07h2.38a100.37,100.37,0,0,0,7.85-7.2,58,58,0,0,0,6.48-7.34l2.23-3.24c.19,0,.29.26.29.79q0,3.24-5.11,8.85L79,104.78l8.57-.86q2.3-5,5-10.12T96,87.32l1.36-2.66a17.61,17.61,0,0,1,1.55-2.48C99.5,81.41,100,81,100.54,81a5,5,0,0,1,1.87.47c.75.31,1.12.64,1.12,1-.62.92-1.31,2-2,3.24l-2.41,4Q86.32,111,86.32,119.62a7.19,7.19,0,0,0,.58,2.51c.48,1.16.62,1.73.43,1.73A2.66,2.66,0,0,1,85,122.1a10,10,0,0,1-.9-4.54q0-2.78,3-11.84a53.93,53.93,0,0,0-5.54.72q-4.55.72-5.62,1-11.8,10.22-18.43,10.22a5.23,5.23,0,0,1-4.32-1.87,1.83,1.83,0,0,1,.36-.07l2.09.36q5.33,0,16-8.35v-.08l-3.89.15a4.78,4.78,0,0,1-3-1,3,3,0,0,1-1.26-2.42l.14-.14s0-.07.07-.07l.22.14Q64.58,105.07,69.83,105.07Z" transform="translate(-52.69 -77.46)"/><path class="cls-1" d="M110.3,98a.37.37,0,0,1,.07.25,2.54,2.54,0,0,1-.58.9Q102,108.6,99,115.29l-.64,1.88a1.25,1.25,0,0,1-1.08.79,3.47,3.47,0,0,1-1.44-.36c-.53-.24-.8-.53-.8-.86,0-.82.8-3.71,2.38-8.68s2.38-8.7,2.38-11.2c0-.67-.17-1.08-.51-1.22a2.26,2.26,0,0,0-1-.18c-.33,0-.5-.08-.5-.32,0-.44.36-.65,1.08-.65q4.82,0,4.82,4,0,1.51-3.45,11.73a88.63,88.63,0,0,1,6.12-8.56Q109.28,98,110.3,98Zm5.61-.72q0-.3-.36.36a47.47,47.47,0,0,0-3.6,8.85,31.27,31.27,0,0,0-1.58,6.77c0,2.93.53,4.39,1.58,4.39a2.46,2.46,0,0,0,1.34-.68c.55-.46.77-.69.68-.69.14,0,.22.19.22.58,0,1.25-.73,1.87-2.17,1.87a3.64,3.64,0,0,1-3.31-1.91,10.54,10.54,0,0,1-1.15-5.43,32.13,32.13,0,0,1,1.87-9.33q1.88-5.79,3.6-5.79h.36C115.07,96.29,115.91,96.62,115.91,97.3Z" transform="translate(-52.69 -77.46)"/><path class="cls-1" d="M121.89,107.27q-2,5.87-2,8.1c0,1.48.31,2.23.94,2.23a3,3,0,0,0,1.65-.79c.68-.53,1.08-.87,1.23-1a4.44,4.44,0,0,1,.5-.43.25.25,0,0,1,.29.29c0,.57-.68,1.26-2,2a7.25,7.25,0,0,1-3,1.19c-1.82,0-2.73-1.33-2.73-4q0-5.91,4.31-15.77a3.29,3.29,0,0,1,.4-1.08,4.42,4.42,0,0,1,.61-1,1.85,1.85,0,0,1,1.37-.5c1.68,0,2.59.33,2.74,1A54.34,54.34,0,0,0,121.89,107.27Zm8-21.49c.1,0,.14.12.14.36l-.35,2.08c-.73,3-1.83,4.47-3.32,4.47a3.65,3.65,0,0,1-2.59-.87A31,31,0,0,0,129.88,85.78Z" transform="translate(-52.69 -77.46)"/><path class="cls-1" d="M148.67,96.07c0-.19-.26.07-.79.79-1.82,2.55-2.81,4.42-2.95,5.62s.45,2.09,1.37,2.38c.33.09.5.16.5.21,0,.39-.47.58-1.4.58a3.15,3.15,0,0,1-2.42-1.12,3.65,3.65,0,0,1-1-2.52,7.2,7.2,0,0,1,.36-2.41,35.73,35.73,0,0,0-5.87,5.76,21.94,21.94,0,0,0-3.21,5.11A30.76,30.76,0,0,0,132,114.4c-.29,1.17-.53,2.06-.72,2.66s-.51.9-.94.9a3.54,3.54,0,0,1-1.44-.36c-.53-.24-.79-.53-.79-.86q0-1.23,2.38-8.68t2.37-11.2c0-.81-.33-1.26-1-1.33s-1-.2-1-.39c0-.44.36-.65,1.08-.65q4.82,0,4.82,4,0,1.15-2.38,8.49,3.9-6.33,8.64-8.71,1.16-2.6,3.42-2.59C147.92,95.64,148.67,95.78,148.67,96.07Z" transform="translate(-52.69 -77.46)"/><path class="cls-1" d="M152.2,96.94l-.65-1.3c0-.14.18-.22.54-.22a8.69,8.69,0,0,1,2.34.72q1.8.72,1.8,1.23-.72,1.44-3.92,8t-3.21,8.82c0,1.51.32,2.27.94,2.27.77,0,1.87-.87,3.31-2.59a49.41,49.41,0,0,0,4.25-6L163.65,98c.67-1.16,1.44-1.73,2.3-1.73,1.73,0,2.59.33,2.59,1q0-.3-.36.36a48.8,48.8,0,0,0-3.63,8.85,30.4,30.4,0,0,0-1.62,6.77c0,2.93.53,4.39,1.58,4.39.34,0,1-.46,2.09-1.37.1,0,.14.19.14.58,0,1.25-.7,1.87-2.12,1.87a3.69,3.69,0,0,1-3.31-1.91,8.83,8.83,0,0,1-1.19-4.75,33.89,33.89,0,0,1,1.15-7.59q-5.61,9.14-7.52,11.52T150,118.39a3.83,3.83,0,0,1-3-1.33,4.31,4.31,0,0,1-1.19-2.92q0-3,3.17-10T152.2,96.94Z" transform="translate(-52.69 -77.46)"/><path class="cls-1" d="M190.94,81.46l-2.45.5c-.34,0-.51-.14-.51-.43,0-.77,1.08-1.15,3.24-1.15,3.32,0,5,1.12,5,3.38q0,1.15-4.43,10.19t-4.57,9.39q-3.81,8.35-3.81,13.4c0,2,.47,3,1.44,3l2.16-.79.21.07c0,.33-.35.67-1,1a4.12,4.12,0,0,1-1.62.51q-3.24,0-3.24-5.19,0-3.24,2.3-11a60,60,0,0,1-5.9,9.68q-3.24,4.29-5.55,4.29a4,4,0,0,1-2.91-1.77,5.25,5.25,0,0,1-1.48-3.27q0-4.47,4.86-10.91t8.68-6.44a5.3,5.3,0,0,1,2.27.61c.83.41,1.26.84,1.26,1.29s-.22.69-.65.69l-1.44-.79q-2.52,0-7.56,7.23t-5,10.19c0,.72.2,1.08.61,1.08s1.23-.53,2.48-1.58a51.41,51.41,0,0,0,5.08-5.3,104.37,104.37,0,0,0,6.52-8.46q1.43-3.16,4.5-10.65c2-5,3.06-7.51,3.06-7.56C192.38,81.84,191.89,81.46,190.94,81.46Z" transform="translate(-52.69 -77.46)"/><path class="cls-1" d="M201.23,80.88l-2.52.5c-.24,0-.36-.14-.36-.43,0-.72.92-1.08,2.77-1.08a6.83,6.83,0,0,1,4.11,1,3.09,3.09,0,0,1,1.33,2.56q0,1.55-3.24,8.17l-4.25,8.71-4.25,9.79a54.33,54.33,0,0,0,5.87-6.08c1.94-2.33,3.41-4.2,4.39-5.62a9.16,9.16,0,0,1,1.69-2.12h.36c1.73,0,2.6.33,2.6,1q0-.3-.36.36a46.14,46.14,0,0,0-3.6,8.85,30.89,30.89,0,0,0-1.59,6.77c0,2.93.51,4.39,1.51,4.39.34,0,1-.46,2.09-1.37.15,0,.22.19.22.58,0,1.25-.69,1.87-2.05,1.87a3.85,3.85,0,0,1-3.35-2.09,9,9,0,0,1-1.3-4.89,19.53,19.53,0,0,1,1.37-6.55,86.57,86.57,0,0,1-8.93,8,19.63,19.63,0,0,0-1.44,5.54v.36c.43.29.65.53.65.72,0,.43-.29.65-.86.65a1.11,1.11,0,0,1-.8-.36q-3.81-4-3.81-4.39a.38.38,0,0,1,.43-.44h.14a28.33,28.33,0,0,0,3.24-2.16A85.43,85.43,0,0,1,195.61,101l4.11-9.43q2.73-6.27,2.88-9.15C202.6,81.41,202.14,80.88,201.23,80.88Zm-10.51,37.37a5.6,5.6,0,0,1-.07-1,13.57,13.57,0,0,1,.21-2,16.77,16.77,0,0,1-1.94.94A9,9,0,0,0,190.72,118.25Z" transform="translate(-52.69 -77.46)"/><path class="cls-1" d="M243.28,101.83l4.25.43q8.21,0,12.52-.43.43-1.44,1.05-1.44a5.52,5.52,0,0,1,2.19.94l2.16-.36c.39,0,.58.13.58.39s-.79.54-2.38.83a105.63,105.63,0,0,1-11.55,22.14q-6.37,9-10.55,9c-.86,0-1.3-.22-1.3-.65,0-.14.32-.34.94-.58a25.77,25.77,0,0,0,3.74-1.58q5.76-5,11.74-19.94-9.93,10.5-20.52,10.51A13.08,13.08,0,0,1,227,118a10.36,10.36,0,0,1-3.42-8.06,20.62,20.62,0,0,1,2.56-9.79,34.6,34.6,0,0,1,6.66-8.79,33.88,33.88,0,0,1,9.79-6.51,25.88,25.88,0,0,1,10.58-2.56,18.63,18.63,0,0,1,7.71,1.3c.62-1.11,1.05-1.85,1.29-2.24a3.6,3.6,0,0,1,2.88-1.58c1.11,0,1.66.24,1.66.72a8.08,8.08,0,0,1-1.66,1.76,30.52,30.52,0,0,0-2.3,2.34,9.66,9.66,0,0,1,1.62,1.26c.46.46.68.74.68.83a10.42,10.42,0,0,1-1,1.26l-1.91,2.34c-1.68,2.16-2.56,3.58-2.66,4.25l.22.22a.32.32,0,0,1-.36.36q-1.08,0-1.08-2.16a18.82,18.82,0,0,1,2-8.21,12.72,12.72,0,0,0-5.9-1.37,25,25,0,0,0-13.11,4.07,36,36,0,0,0-10.8,10q-4.17,6-4.17,11.09a9.87,9.87,0,0,0,3.27,7.92,12.9,12.9,0,0,0,8.68,2.81q8.28,0,18.07-11.23a20.14,20.14,0,0,0,2.45-3l.72-2.09q-11.38,2.23-14.26,2.24a2.06,2.06,0,0,1-1.58-.87,3.36,3.36,0,0,1-.72-2.23A.25.25,0,0,1,243.28,101.83Zm20.09-15-.8-.72a28.19,28.19,0,0,0-3,6.34Q260.63,91,263.37,86.78Z" transform="translate(-52.69 -77.46)"/><path class="cls-1" d="M283.74,100.68l-1.8-.29a22.89,22.89,0,0,1,.14,2.31,18.61,18.61,0,0,1-3,10.54q-3,4.58-7.56,4.58c-3.89,0-5.83-2-5.83-6.12a15.53,15.53,0,0,1,3.89-9.72,6.44,6.44,0,0,1-.8-3.39,5.2,5.2,0,0,1,1.73-3.78,5.83,5.83,0,0,1,4.25-1.69q4.75,0,6.34,4.9c2.25.43,3.38,1,3.38,1.58S284.22,100.68,283.74,100.68Zm-10.66,3.1a2,2,0,0,0,1.16.46l.5,0a.32.32,0,0,1,.36.36c0,.38-.32.57-1,.57a3.2,3.2,0,0,1-1.77-.5q-3.81,4.47-3.81,8.39t2.91,3.92c2,0,3.78-1.55,5.51-4.64a18.26,18.26,0,0,0,2.59-8.89,6.2,6.2,0,0,0-.64-3A11.51,11.51,0,0,0,273.08,103.78Zm.8-8.64a3,3,0,0,0-2.52,1.36,4.62,4.62,0,0,0-1,2.78,7.25,7.25,0,0,0,.21,2c3.27-2.45,5.52-3.67,6.77-3.67h.22A3.6,3.6,0,0,0,273.88,95.14Z" transform="translate(-52.69 -77.46)"/><path class="cls-1" d="M300.73,106.66c.29,0,.43.1.43.32a1.27,1.27,0,0,1-.14.61q-7.56,11-12.53,11-6.12,0-6.12-5.69,0-4.4,4.36-10.66T295.19,96a4.61,4.61,0,0,1,3.06,1.12,3.42,3.42,0,0,1,1.33,2.7q0,2.73-3.38,5.4a10.77,10.77,0,0,1-6.56,2.66c-.43,0-.64-.1-.64-.29l.21-.36q8.28-2.6,8.28-8.49,0-.87-.57-.87c-.58,0-1.54.55-2.88,1.66a27,27,0,0,0-6.12,7.2q-2.6,4.32-2.6,7.27c0,2,.75,3,2.24,3q2.52,0,5.68-2.66,2-1.87,4.72-4.75C299.76,107.62,300.68,106.66,300.73,106.66Z" transform="translate(-52.69 -77.46)"/><path class="cls-1" d="M305.41,117.31l1.15-.36a.32.32,0,0,1,.36.36c0,.77-.84,1.15-2.52,1.15q-3.45,0-3.45-5.76,0-3.81,2.3-12.13A92.47,92.47,0,0,1,309.08,85q3.53-7.26,6.34-7.27a5.73,5.73,0,0,1,3.17,1.05A2.86,2.86,0,0,1,320.17,81q0,5.19-15.26,23a42.14,42.14,0,0,0-1.23,9.29C303.68,116,304.26,117.31,305.41,117.31Zm13-36.5c0-.58-.17-.87-.5-.87q-2.16,0-6.27,7.67a84.94,84.94,0,0,0-6.26,14.58Q318.45,85.14,318.44,80.81Z" transform="translate(-52.69 -77.46)"/></svg>