<svg id="Layer_2" data-name="Layer 2" xmlns="http://www.w3.org/2000/svg" viewBox="0 0 248.69 38.78"><defs><style>.cls-1{fill:none;stroke:#86c232;stroke-miterlimit:10;stroke-width:1.5px;}</style></defs><title>Anirudh Goel J</title><path class="cls-1" d="M83.36,120.82c-.16-.35-.39-.86-.67-1.53s-.62-1.45-1-2.33l-1.2-2.88q-.65-1.56-1.32-3.24H66.89l-4.12,10H57.58l15.5-36.43c.2.45.54,1.27,1,2.45l1.77,4.25q1,2.47,2.31,5.47c.84,2,1.71,4,2.59,6.07l2.59,6.05,2.33,5.47c.7,1.67,1.3,3.08,1.8,4.25s.84,2,1,2.42Zm-14.64-14.4h8.69c-.45-1-.88-2.07-1.28-3s-.76-1.88-1.1-2.69-.63-1.53-.89-2.14-.45-1.08-.57-1.44a4.38,4.38,0,0,1-.22-.67c-.11-.38-.2-.73-.27-1.06a8.85,8.85,0,0,1-.28,1.06c-.13.38-.21.61-.24.67Z" transform="translate(-56.82 -83.03)"/><path class="cls-1" d="M91.47,100.76h3.6c.06,1,.12,1.9.17,2.71s.1,1.63.16,2.43a9.9,9.9,0,0,1,3.15-4.13,8.12,8.12,0,0,1,5-1.54,6.86,6.86,0,0,1,4.85,1.68,5.89,5.89,0,0,1,1.92,4.32v14.59h-4.12V108.1a4.25,4.25,0,0,0-1.06-2.61,4.15,4.15,0,0,0-3-1.18,6.72,6.72,0,0,0-2.64.51,6.38,6.38,0,0,0-2.06,1.36,6.45,6.45,0,0,0-1.37,2.07,6.86,6.86,0,0,0-.5,2.64v9.93H91.47Z" transform="translate(-56.82 -83.03)"/><path class="cls-1" d="M115.37,93.08a2.49,2.49,0,0,1,.84-1.92,2.64,2.64,0,0,1,1.8-.77,2.58,2.58,0,0,1,1.78.77,2.53,2.53,0,0,1,.81,1.92,2.47,2.47,0,0,1-.81,1.9,2.63,2.63,0,0,1-1.78.74,2.7,2.7,0,0,1-1.8-.74A2.43,2.43,0,0,1,115.37,93.08ZM120,120.82H115.9V100.76H120Z" transform="translate(-56.82 -83.03)"/><path class="cls-1" d="M136.78,105.51a9.26,9.26,0,0,0-2.59.36A6.9,6.9,0,0,0,132,107a5.2,5.2,0,0,0-1.56,1.8,5.12,5.12,0,0,0-.58,2.47v9.6h-4.08V100.76h3.6c.06,1,.12,1.9.17,2.71s.1,1.63.17,2.43a9.05,9.05,0,0,1,1.63-2.36,11.17,11.17,0,0,1,2.16-1.77,12.46,12.46,0,0,1,2.25-1.13,5.88,5.88,0,0,1,2-.41Z" transform="translate(-56.82 -83.03)"/><path class="cls-1" d="M159.34,121.26h-3.46l-.48-5.57a10.7,10.7,0,0,1-3.09,4,7.88,7.88,0,0,1-5.07,1.58,6.92,6.92,0,0,1-4.87-1.65,5.92,5.92,0,0,1-1.89-4.35V100.76h4.08v12.72a4,4,0,0,0,1.08,2.55,4.39,4.39,0,0,0,3,1.19,6.68,6.68,0,0,0,2.64-.5,6.45,6.45,0,0,0,2.07-1.37,6.07,6.07,0,0,0,1.34-2.06,7,7,0,0,0,.48-2.64v-9.89h4.13Z" transform="translate(-56.82 -83.03)"/><path class="cls-1" d="M163.75,110.79a11.19,11.19,0,0,1,.8-4.29,10,10,0,0,1,2.18-3.34A9.7,9.7,0,0,1,170,101a10.84,10.84,0,0,1,4.1-.77,9.18,9.18,0,0,1,2.67.36,8.93,8.93,0,0,1,2,.87,6.51,6.51,0,0,1,1.42,1.12,7.33,7.33,0,0,1,.86,1.11V83.53h4.13v37.29h-4.13v-1.48a5.27,5.27,0,0,1,0-.65,5.15,5.15,0,0,0,.05-.6,10,10,0,0,1-1.13,1.13,9.48,9.48,0,0,1-1.51,1,8.78,8.78,0,0,1-2,.77,11.61,11.61,0,0,1-6.87-.56,9.48,9.48,0,0,1-5.23-5.59A12,12,0,0,1,163.75,110.79Zm4.13-.05a6.59,6.59,0,0,0,.51,2.6,6.38,6.38,0,0,0,1.36,2.06,6.45,6.45,0,0,0,2.07,1.37,6.86,6.86,0,0,0,2.64.5,7,7,0,0,0,2.66-.5,6.41,6.41,0,0,0,2.11-1.39,6,6,0,0,0,1.37-2.07,7.09,7.09,0,0,0,0-5.13,5.73,5.73,0,0,0-1.37-2,6.36,6.36,0,0,0-2.11-1.37,6.82,6.82,0,0,0-2.66-.51,6.68,6.68,0,0,0-2.64.51,6.24,6.24,0,0,0-3.43,3.41A6.36,6.36,0,0,0,167.88,110.74Z" transform="translate(-56.82 -83.03)"/><path class="cls-1" d="M191,83.53h4.08v22.08a9.64,9.64,0,0,1,3-3.87,8.22,8.22,0,0,1,4.94-1.51,6.91,6.91,0,0,1,4.92,1.63,6,6,0,0,1,1.94,4.37v14.59h-4.12V108.1a4.25,4.25,0,0,0-1.06-2.61,4.15,4.15,0,0,0-3-1.18,6.68,6.68,0,0,0-2.64.51,6.42,6.42,0,0,0-2.07,1.36,6.61,6.61,0,0,0-1.37,2.07,6.86,6.86,0,0,0-.5,2.64v9.93H191Z" transform="translate(-56.82 -83.03)"/><path class="cls-1" d="M252.79,105.8v13a18.38,18.38,0,0,1-4.27,1.75,18.64,18.64,0,0,1-4.94.65,18.45,18.45,0,0,1-7.18-1.34,16.87,16.87,0,0,1-5.47-3.65,16,16,0,0,1-3.51-5.43,18.36,18.36,0,0,1-1.22-6.72,17.2,17.2,0,0,1,1.39-6.91,17.94,17.94,0,0,1,3.77-5.59,17.32,17.32,0,0,1,12.31-5.07,18.49,18.49,0,0,1,4.8.63,17.27,17.27,0,0,1,4.32,1.77l-1,1.64A15.72,15.72,0,0,0,247.92,89a16.6,16.6,0,0,0-4.3-.57,14.57,14.57,0,0,0-6,1.22A15.8,15.8,0,0,0,232.78,93a16,16,0,0,0-3.34,5,15.2,15.2,0,0,0-1.22,6.07,16.34,16.34,0,0,0,1.08,6,14.35,14.35,0,0,0,7.92,8.16,15.77,15.77,0,0,0,6.26,1.2,16.25,16.25,0,0,0,3.84-.46,14.33,14.33,0,0,0,3.6-1.37v-10H243.1V105.8Z" transform="translate(-56.82 -83.03)"/><path class="cls-1" d="M257.3,111.51a9.48,9.48,0,0,1,.77-3.79,9.72,9.72,0,0,1,5.19-5.18,9.71,9.71,0,0,1,7.58,0,9.66,9.66,0,0,1,5.18,5.18,9.31,9.31,0,0,1,.77,3.79,9.15,9.15,0,0,1-.77,3.77,9.66,9.66,0,0,1-2.08,3,10.18,10.18,0,0,1-3.1,2.06,9.58,9.58,0,0,1-3.84.77,9.81,9.81,0,0,1-3.79-.74,9.47,9.47,0,0,1-3.07-2,9.8,9.8,0,0,1-2.07-3A9.45,9.45,0,0,1,257.3,111.51Zm1.68,0a7.91,7.91,0,0,0,4.88,7.39,8.14,8.14,0,0,0,6.28,0,8.06,8.06,0,0,0,2.57-1.7,8.13,8.13,0,0,0,1.73-8.83,8.08,8.08,0,0,0-1.73-2.57,8.16,8.16,0,0,0-8.85-1.73,7.78,7.78,0,0,0-2.55,1.73,8.17,8.17,0,0,0-1.7,2.57A7.86,7.86,0,0,0,259,111.51Z" transform="translate(-56.82 -83.03)"/><path class="cls-1" d="M297,118.57a9.57,9.57,0,0,1-3.05,1.89,9.88,9.88,0,0,1-3.72.7,9.48,9.48,0,0,1-3.79-.77,10.18,10.18,0,0,1-3.1-2.06,9.75,9.75,0,0,1-2-10.61,10.33,10.33,0,0,1,2.07-3.1,9.71,9.71,0,0,1,3.05-2.08,9.26,9.26,0,0,1,3.76-.77,8,8,0,0,1,5.26,1.8,10.72,10.72,0,0,1,3.24,4.58l-3.74,1.49-4.13,1.68L286.63,113l-3.89,1.55a8,8,0,0,0,7.44,5,8.11,8.11,0,0,0,3.08-.58,7.62,7.62,0,0,0,2.49-1.58Zm-.43-10.9a7.38,7.38,0,0,0-2.52-3.07,6.6,6.6,0,0,0-3.87-1.15,7.55,7.55,0,0,0-3.14.65,8.2,8.2,0,0,0-2.54,1.72,8,8,0,0,0-1.71,2.55,7.93,7.93,0,0,0-.62,3.09,6.5,6.5,0,0,0,.07,1c.05.32.1.64.17,1l3.45-1.41,3.68-1.49,3.64-1.47C294.38,108.58,295.51,108.12,296.57,107.67Z" transform="translate(-56.82 -83.03)"/><path class="cls-1" d="M305,120.82h-1.69V84.44H305Z" transform="translate(-56.82 -83.03)"/></svg>