<?xml version="1.0" encoding="UTF-8"?>
<svg width="219px" height="49px" viewBox="0 0 219 49" version="1.1" xmlns="http://www.w3.org/2000/svg" xmlns:xlink="http://www.w3.org/1999/xlink">
    <!-- Generator: Sketch 51 (57462) - http://www.bohemiancoding.com/sketch -->
    <title>Group 18</title>
    <desc>Created with Sketch.</desc>
    <defs>
        <linearGradient x1="16.7997556%" y1="49.9957649%" x2="97.1005959%" y2="49.9957649%" id="linearGradient-1">
            <stop stop-color="#EE3D24" offset="0%"></stop>
            <stop stop-color="#134576" offset="55.3%"></stop>
            <stop stop-color="#134576" offset="100%"></stop>
        </linearGradient>
    </defs>
    <g id="Page-1" stroke="none" stroke-width="1" fill="none" fill-rule="evenodd">
        <g id="01_Datahack-hp" transform="translate(-135.000000, -20.000000)" fill-rule="nonzero">
            <g id="Group-18" transform="translate(135.000000, 20.000000)">
                <path d="M64.7804264,33.843254 L62.1603106,33.843254 L68.0072716,20.0664145 L70.7532918,20.0664145 L76.7250719,33.843254 L73.9790516,33.843254 L72.4106724,30.0869211 L67.8325248,30.0869211 L68.7116855,27.8700333 L71.4848403,27.8700333 L69.3173295,22.6958475 L64.7804264,33.843254 Z M78.5647969,33.843254 L78.5647969,23.7250393 L80.5401949,23.7250393 L80.8571268,25.2102022 C81.8263743,24.2222649 82.9302093,23.726125 84.1708027,23.726125 C86.5662441,23.726125 87.7634221,24.9724458 87.7634221,27.4650876 L87.7634221,33.843254 L85.2127708,33.843254 L85.2127708,27.4650876 C85.2127708,26.3468729 84.6559691,25.7888512 83.5456218,25.7888512 C82.7163888,25.7888512 81.9066927,26.119973 81.1176189,26.781131 L81.1176189,33.843254 L78.5647969,33.843254 Z M90.0828866,30.6927112 C90.0828866,28.682096 91.5481543,27.6767884 94.4765191,27.6767884 C95.1635667,27.6767884 95.8506146,27.7419271 96.5387476,27.8689477 L96.5387476,27.1068246 C96.5387476,26.2013964 95.8875174,25.7497679 94.5818012,25.7497679 C93.476881,25.7497679 92.2514828,25.9093578 90.9023511,26.2307088 L90.9023511,24.2081515 C92.2503974,23.8868005 93.476881,23.726125 94.5818012,23.726125 C97.5883136,23.726125 99.0893988,24.8378258 99.0893988,27.0590562 L99.0893988,33.8443397 L97.606765,33.8443397 L96.7004697,32.9378258 C95.8213092,33.5414446 94.8509762,33.843254 93.7916419,33.843254 C91.3202238,33.843254 90.083972,32.793435 90.083972,30.6927112 L90.0828866,30.6927112 Z M94.4765191,29.4116497 C93.2500358,29.4116497 92.6367941,29.8285375 92.6367941,30.6644844 C92.6367941,31.5633988 93.1512657,32.012856 94.1780384,32.012856 C95.0246376,32.012856 95.8126261,31.7501298 96.5376622,31.2225062 L96.5376622,29.6048946 C95.8951152,29.4746171 95.209153,29.4116497 94.4754337,29.4116497 L94.4765191,29.4116497 Z M104.445766,20.0642432 L104.445766,33.843254 L101.891859,33.843254 L101.891859,20.0664145 L104.445766,20.0664145 L104.445766,20.0642432 Z M106.044536,23.726125 L108.751483,23.726125 L111.304305,31.0108053 L113.800687,23.726125 L116.457706,23.726125 L112.257271,34.1418065 C111.512699,35.9787185 110.322033,37.2858355 108.68636,38.0631575 L107.452279,36.3185255 C108.581077,35.8234712 109.403798,35.0179223 109.91827,33.8997076 L106.043451,23.7250393 L106.044536,23.726125 Z M117.912119,22.0889718 L119.800687,22.0889718 L120.184913,23.726125 L122.727966,23.726125 L122.727966,25.7497679 L120.464941,25.7497679 L120.464941,30.4039295 C120.464941,31.348441 120.87196,31.8196111 121.688169,31.8196111 L122.727966,31.8196111 L122.727966,33.843254 L120.454088,33.843254 C118.758719,33.843254 117.911034,32.9345689 117.911034,31.1182842 L117.911034,22.0889718 L117.912119,22.0889718 Z M127.409225,20.0642432 L127.409225,22.0889718 L124.855318,22.0889718 L124.855318,20.0642432 L127.40814,20.0642432 L127.409225,20.0642432 Z M127.409225,23.726125 L127.409225,33.8443397 L124.855318,33.8443397 L124.855318,23.726125 L127.40814,23.726125 L127.409225,23.726125 Z M137.676953,33.5544724 C136.841208,33.7466316 135.975072,33.843254 135.075289,33.843254 C131.479413,33.843254 129.680933,32.0931937 129.680933,28.5919874 C129.680933,25.3480791 131.479413,23.726125 135.075289,23.726125 C135.976157,23.726125 136.841208,23.823833 137.675868,24.0159923 L137.675868,26.0396352 C136.840122,25.8463903 136.036939,25.7497679 135.266316,25.7497679 C133.243161,25.7497679 132.231584,26.6975363 132.231584,28.5919874 C132.231584,30.7437366 133.243161,31.8196111 135.266316,31.8196111 C136.036939,31.8196111 136.840122,31.721903 137.675868,31.5308294 L137.675868,33.5544724 L137.676953,33.5544724 Z M139.755463,33.3612275 L139.755463,31.2420478 C140.878835,31.691505 142.175868,31.9151479 143.646562,31.9151479 C144.744971,31.9151479 145.293089,31.5633988 145.293089,30.8566437 C145.293089,30.1835435 144.924059,29.8469935 144.185998,29.8469935 L142.354956,29.8469935 C140.29924,29.8469935 139.272467,28.8340864 139.272467,26.8104434 C139.272467,24.6912637 140.770296,23.6295025 143.770296,23.6295025 C145.042366,23.6295025 146.239543,23.8227474 147.362915,24.2092371 L147.362915,26.3284169 C146.239543,25.8778741 145.018487,25.6531455 143.703002,25.6531455 C142.322394,25.6531455 141.632091,26.0070659 141.632091,26.7127353 C141.632091,27.3858355 142.033683,27.7245568 142.836866,27.7245568 L144.473624,27.7245568 C146.720368,27.7245568 147.844826,28.7363783 147.844826,30.7600212 C147.844826,32.879201 146.412119,33.9409621 143.548878,33.9409621 C142.144392,33.9409621 140.878835,33.745546 139.755463,33.3612275 Z M168.113277,20.0642432 L162.074203,33.843254 L159.328183,33.843254 L153.549602,20.0664145 L156.584334,20.0664145 L160.852062,30.6156304 L165.108936,20.0631575 L168.113277,20.0631575 L168.113277,20.0642432 Z M172.263784,20.0642432 L172.263784,22.0889718 L169.710962,22.0889718 L169.710962,20.0642432 L172.263784,20.0642432 Z M172.263784,23.726125 L172.263784,33.8443397 L169.710962,33.8443397 L169.710962,23.726125 L172.263784,23.726125 Z M184.024999,33.2363783 C182.477242,33.6402384 180.964218,33.8443397 179.488096,33.8443397 C176.218921,33.8443397 174.585419,32.0899368 174.585419,28.5822166 C174.585419,25.3448222 176.184189,23.726125 179.382814,23.726125 C180.062264,23.726125 180.75908,23.8868005 181.472177,24.2081515 L181.472177,20.0642432 L184.024999,20.0642432 L184.024999,33.2363783 Z M181.472177,26.3664145 C180.945766,26.019008 180.284768,25.8453047 179.488096,25.8453047 C177.901266,25.8453047 177.108936,26.7355339 177.108936,28.5159923 C177.108936,30.6286581 177.933827,31.6860767 179.58361,31.6860767 C180.252206,31.6860767 180.881729,31.5916256 181.472177,31.4038089 L181.472177,26.3664145 Z M186.82746,33.843254 L186.82746,20.0664145 L189.380282,20.0664145 L189.380282,25.0169573 C190.175868,24.1571262 191.192872,23.7272106 192.433465,23.7272106 C194.827821,23.7272106 196.026085,24.9735315 196.026085,27.4661732 L196.026085,33.8443397 L193.472177,33.8443397 L193.472177,27.4661732 C193.472177,26.3479585 192.916461,25.7899368 191.806114,25.7899368 C190.977966,25.7899368 190.169356,26.1210586 189.379196,26.7822166 L189.379196,33.8443397 L186.826374,33.8443397 L186.82746,33.843254 Z M197.624855,23.726125 L200.331801,23.726125 L202.884623,31.0108053 L205.378834,23.726125 L208.038024,23.726125 L203.83759,34.1418065 C203.093017,35.9787185 201.901266,37.2858355 200.264507,38.0631575 L199.031512,36.3185255 C200.160311,35.8234712 200.983031,35.0179223 201.497503,33.8997076 L197.624855,23.7250393 L197.624855,23.726125 Z M209.154884,30.6927112 C209.154884,28.682096 210.620151,27.6767884 213.546345,27.6767884 C214.234478,27.6767884 214.921526,27.7419271 215.608574,27.8689477 L215.608574,27.1068246 C215.608574,26.2013964 214.957344,25.7497679 213.652713,25.7497679 C212.547792,25.7497679 211.322395,25.9093578 209.973263,26.2307088 L209.973263,24.2081515 C211.322395,23.8868005 212.548878,23.726125 213.652713,23.726125 C216.659225,23.726125 218.160311,24.8378258 218.160311,27.0590562 L218.160311,33.8443397 L216.677677,33.8443397 L215.772467,32.9378258 C214.893306,33.5414446 213.922973,33.843254 212.863639,33.843254 C210.393306,33.843254 209.157054,32.793435 209.157054,30.6927112 L209.154884,30.6927112 Z M213.546345,29.4116497 C212.319862,29.4116497 211.707706,29.8285375 211.707706,30.6644844 C211.707706,31.5633988 212.221092,32.012856 213.24895,32.012856 C214.095549,32.012856 214.883538,31.7501298 215.608574,31.2225062 L215.608574,29.6048946 C214.968198,29.4746171 214.280064,29.4116497 213.546345,29.4116497 Z" id="Shape" fill="#1A1A1A"></path>
                <path d="M0.0705886617,47.7049062 C-0.10160896,48.0674882 0.0520610695,48.5021499 0.413894045,48.673612 C0.514161017,48.7227572 0.620967135,48.7456917 0.724503679,48.7456917 C0.99696827,48.7456917 1.2552647,48.5927956 1.3784187,48.3306881 C1.3784187,48.3306881 11.2089411,27.9299835 11.7909255,26.859711 C12.4012462,25.7392013 13.0845874,25.1833148 14.0229554,26.4971289 C15.0256251,27.8983122 24.136841,42.2760034 27.6156689,47.4657332 C28.7676492,49.1847216 30.2596653,49.3518152 31.8181629,46.7493059 C37.6707021,36.9792469 55.1629288,7.63302999 55.1629288,7.63302999 L56.4053673,15.3357157 C56.5524982,16.2421709 57.3459153,16.8843345 58.2385093,16.8624922 C58.3202485,16.8624922 58.401988,16.8537552 58.4869969,16.8406498 C59.4754986,16.680109 60.1479412,15.748535 59.9877319,14.7568948 L57.8516095,1.52701613 C57.7720498,1.02464332 57.4854171,0.581244717 57.0625521,0.301663328 C56.6375072,0.0220819397 56.1176447,-0.0696557035 55.6261188,0.0537532689 L42.3843397,3.32791343 C41.4121861,3.56817868 40.8182132,4.55326625 41.0590717,5.52852475 C41.2988406,6.50269115 42.2818928,7.09898584 43.2540467,6.85653634 L50.4601901,5.0731129 C50.4601901,5.0731129 36.2233704,35.0494798 30.368651,44.4110881 C29.8019248,45.3153589 28.8777249,45.6779412 27.8053043,43.7842142 C27.2385779,42.7838368 14.3150375,22.7937676 14.3150375,22.7937676 C13.5793831,21.6579682 12.5887018,21.0300022 11.5925713,23.1607182 L0.0705886617,47.7049062 Z" id="Shape" fill="url(#linearGradient-1)"></path>
            </g>
        </g>
    </g>
</svg>